<svg width="80" height="81" viewBox="0 0 80 81" fill="none" xmlns="http://www.w3.org/2000/svg">
<path d="M29.3337 67.1668V53.5001L35.667 54.1668C37.5108 54.0643 39.2556 53.2998 40.5809 52.0138C41.9061 50.7278 42.7226 49.0066 42.8803 47.1668V28.1668C42.9024 23.3646 41.016 18.7503 37.6359 15.339C34.2559 11.9277 29.6592 9.99886 24.857 9.97675C20.0548 9.95465 15.4405 11.8411 12.0292 15.2211C8.61795 18.6012 6.68909 23.1979 6.66699 28.0001C6.66699 37.3334 8.85366 38.1801 10.0003 43.1668C10.7713 46.1788 10.8045 49.3325 10.097 52.3601L6.66699 67.1668M66.0003 59.8334C70.6864 55.1468 73.3198 48.7913 73.3217 42.1638C73.3235 35.5364 70.6937 29.1793 66.0103 24.4901M56.667 50.5001C57.7576 49.4097 58.6212 48.114 59.2078 46.6878C59.7945 45.2615 60.0925 43.7332 60.0848 42.191C60.077 40.6489 59.7636 39.1236 59.1627 37.7034C58.5617 36.2831 57.6851 34.9961 56.5837 33.9168" stroke="#1E1E1E" stroke-width="4" stroke-linecap="round" stroke-linejoin="round"/>
</svg>
