<svg width="80" height="81" viewBox="0 0 80 81" fill="none" xmlns="http://www.w3.org/2000/svg">
<path d="M63.333 32.5665C63.333 41.1665 59.0997 47.7832 52.6597 52.1398C51.1597 53.1532 50.4097 53.6598 50.0397 54.2398C49.673 54.8132 49.543 55.5732 49.293 57.0865L49.093 58.2632C48.653 60.9232 48.4297 62.2532 47.4963 63.0432C46.563 63.8332 45.2163 63.8332 42.5197 63.8332H33.813C31.1163 63.8332 29.7697 63.8332 28.8363 63.0432C27.903 62.2532 27.683 60.9232 27.2363 58.2632L27.043 57.0865C26.7897 55.5765 26.6663 54.8199 26.2997 54.2465C25.933 53.6732 25.1797 53.1598 23.6763 52.1332C17.3063 47.7765 13.333 41.1632 13.333 32.5665C13.333 18.5432 24.5263 7.16652 38.333 7.16652C40.0126 7.16474 41.6879 7.33451 43.333 7.67318" stroke="#1E1E1E" stroke-width="4" stroke-linecap="round" stroke-linejoin="round"/>
<path d="M44.9993 63.8332V67.1665C44.9993 70.3098 44.9993 71.8798 44.0227 72.8565C43.046 73.8332 41.476 73.8332 38.3327 73.8332C35.1893 73.8332 33.6193 73.8332 32.6427 72.8565C31.666 71.8798 31.666 70.3098 31.666 67.1665V63.8332M54.9993 7.1665L55.8593 9.48984C56.986 12.5365 57.5493 14.0598 58.6593 15.1698C59.7727 16.2832 61.296 16.8465 64.3427 17.9732L66.666 18.8332L64.3427 19.6932C61.296 20.8198 59.7727 21.3832 58.6627 22.4932C57.5494 23.6065 56.986 25.1298 55.8593 28.1765L54.9993 30.4998L54.1394 28.1765C53.0127 25.1298 52.4493 23.6065 51.3393 22.4965C50.226 21.3832 48.7027 20.8198 45.656 19.6932L43.3327 18.8332L45.656 17.9732C48.7027 16.8465 50.226 16.2832 51.336 15.1732C52.4493 14.0598 53.0127 12.5365 54.1394 9.48984L54.9993 7.1665Z" stroke="#1E1E1E" stroke-width="4" stroke-linecap="round" stroke-linejoin="round"/>
</svg>
