<svg width="80" height="80" viewBox="0 0 80 80" fill="none" xmlns="http://www.w3.org/2000/svg">
<path d="M40 70C35.8711 70 31.9822 69.2111 28.3334 67.6333C24.6845 66.0533 21.5067 63.9089 18.8 61.2C16.0934 58.4911 13.9489 55.3133 12.3667 51.6667C10.7845 48.02 9.99557 44.1311 10 40C10 35.8578 10.7889 31.9656 12.3667 28.3233C13.9467 24.6789 16.0911 21.5044 18.8 18.8C21.5089 16.0956 24.6867 13.9511 28.3334 12.3667C31.9822 10.7889 35.8711 10 40 10C44.1422 10 48.0345 10.7889 51.6767 12.3667C55.3211 13.9467 58.4967 16.0911 61.2034 18.8C63.91 21.5089 66.0534 24.6833 67.6334 28.3233C69.2111 31.9678 70 35.86 70 40C70 44.1289 69.2111 48.0178 67.6334 51.6667C66.0534 55.3156 63.9089 58.4933 61.2 61.2C58.4911 63.9067 55.3167 66.0511 51.6767 67.6333C48.0367 69.2156 44.1445 70.0044 40 70ZM40 66.6933C41.9556 64.18 43.5689 61.7122 44.84 59.29C46.1089 56.8678 47.1411 54.1567 47.9367 51.1567H32.0634C32.9456 54.3256 33.9989 57.1211 35.2234 59.5433C36.45 61.9656 38.0422 64.3489 40 66.6933ZM35.7567 66.1933C34.2011 64.36 32.7811 62.0933 31.4967 59.3933C30.2122 56.6956 29.2567 53.9489 28.63 51.1533H15.8467C17.7578 55.2978 20.4656 58.6978 23.97 61.3533C27.4767 64.0067 31.4056 65.62 35.7567 66.1933ZM44.2434 66.1933C48.5945 65.62 52.5234 64.0067 56.03 61.3533C59.5345 58.6978 62.2422 55.2978 64.1534 51.1533H51.3734C50.5289 53.9911 49.4656 56.7589 48.1834 59.4567C46.8989 62.1567 45.5856 64.4044 44.2434 66.1933ZM14.4867 47.8233H27.9367C27.6834 46.4544 27.5056 45.1211 27.4034 43.8233C27.2967 42.5278 27.2434 41.2533 27.2434 40C27.2434 38.7467 27.2956 37.4722 27.4 36.1767C27.5045 34.8811 27.6822 33.5478 27.9334 32.1767H14.49C14.1278 33.3322 13.8445 34.5911 13.64 35.9533C13.4356 37.3133 13.3334 38.6622 13.3334 40C13.3334 41.3378 13.4345 42.6878 13.6367 44.05C13.8389 45.4122 14.1222 46.6689 14.4867 47.82M31.27 47.82H48.73C48.9834 46.4533 49.1611 45.1422 49.2634 43.8867C49.37 42.6333 49.4234 41.3378 49.4234 40C49.4234 38.6622 49.3711 37.3667 49.2667 36.1133C49.1622 34.86 48.9845 33.5489 48.7334 32.18H31.2667C31.0156 33.5467 30.8378 34.8578 30.7334 36.1133C30.6289 37.3667 30.5767 38.6622 30.5767 40C30.5767 41.3378 30.6289 42.6333 30.7334 43.8867C30.8378 45.14 31.0189 46.4511 31.27 47.82ZM52.0667 47.82H65.5133C65.8756 46.6667 66.1589 45.41 66.3634 44.05C66.5656 42.6878 66.6667 41.3378 66.6667 40C66.6667 38.6622 66.5656 37.3122 66.3634 35.95C66.1611 34.5878 65.8778 33.3311 65.5133 32.18H52.0634C52.3167 33.5467 52.4945 34.8789 52.5967 36.1767C52.7034 37.4744 52.7567 38.7489 52.7567 40C52.7567 41.2511 52.7045 42.5256 52.6 43.8233C52.4956 45.1211 52.3178 46.4544 52.0667 47.8233M51.3734 28.8467H64.1534C62.2 24.6156 59.5245 21.2156 56.1267 18.6467C52.7289 16.0778 48.7678 14.4433 44.2434 13.7433C45.7989 15.79 47.1978 18.1311 48.44 20.7667C49.6822 23.4 50.66 26.0933 51.3734 28.8467ZM32.0634 28.8467H47.9367C47.0567 25.7178 45.9711 22.8889 44.68 20.36C43.3889 17.8311 41.8289 15.48 40 13.3067C38.1711 15.4778 36.6111 17.8289 35.32 20.36C34.0289 22.8911 32.9411 25.72 32.0634 28.8467ZM15.85 28.8467H28.63C29.3434 26.0956 30.3211 23.4022 31.5634 20.7667C32.8056 18.1311 34.2045 15.79 35.76 13.7433C31.1956 14.4456 27.2245 16.09 23.8467 18.6767C20.4689 21.2678 17.8022 24.6567 15.8467 28.8433" fill="#1E1E1E"/>
</svg>
