<svg width="60" height="60" viewBox="0 0 60 60" fill="none" xmlns="http://www.w3.org/2000/svg">
<path d="M41.2504 16.875H48.9304C49.3949 16.8755 49.8427 17.0483 50.187 17.3601C50.5314 17.6718 50.7477 18.1003 50.7942 18.5625L51.9379 30H48.1654L47.2279 20.625H41.2504V26.25C41.2504 26.7473 41.0529 27.2242 40.7012 27.5758C40.3496 27.9275 39.8727 28.125 39.3754 28.125C38.8781 28.125 38.4012 27.9275 38.0496 27.5758C37.698 27.2242 37.5004 26.7473 37.5004 26.25V20.625H22.5004V26.25C22.5004 26.7473 22.3029 27.2242 21.9512 27.5758C21.5996 27.9275 21.1227 28.125 20.6254 28.125C20.1281 28.125 19.6512 27.9275 19.2996 27.5758C18.948 27.2242 18.7504 26.7473 18.7504 26.25V20.625H12.7692L9.76916 50.625H30.0004V54.375H7.69541C7.43353 54.3747 7.1746 54.3196 6.93532 54.2132C6.69603 54.1068 6.48169 53.9514 6.30611 53.7571C6.13053 53.5628 5.99759 53.3339 5.91588 53.0851C5.83416 52.8362 5.80548 52.5731 5.83166 52.3125L9.20666 18.5625C9.25311 18.1003 9.46946 17.6718 9.81379 17.3601C10.1581 17.0483 10.6059 16.8755 11.0704 16.875H18.7504V15.5662C18.7504 9.06375 23.7604 3.75 30.0004 3.75C36.2404 3.75 41.2504 9.06375 41.2504 15.5662V16.8787V16.875ZM37.5004 16.875V15.5662C37.5004 11.0887 34.1179 7.5 30.0004 7.5C25.8829 7.5 22.5004 11.0887 22.5004 15.5662V16.8787H37.5004V16.875ZM49.3017 45.225L45.0004 40.9275V54.375C45.0004 54.8723 44.8029 55.3492 44.4512 55.7008C44.0996 56.0525 43.6227 56.25 43.1254 56.25C42.6281 56.25 42.1512 56.0525 41.7996 55.7008C41.448 55.3492 41.2504 54.8723 41.2504 54.375V40.9275L36.9529 45.225C36.78 45.4041 36.5731 45.5469 36.3443 45.6452C36.1155 45.7435 35.8695 45.7952 35.6205 45.7973C35.3716 45.7995 35.1247 45.7521 34.8943 45.6578C34.6638 45.5635 34.4545 45.4243 34.2784 45.2482C34.1024 45.0722 33.9632 44.8628 33.8689 44.6324C33.7746 44.402 33.7272 44.1551 33.7293 43.9061C33.7315 43.6572 33.7832 43.4111 33.8815 43.1824C33.9797 42.9536 34.1226 42.7467 34.3017 42.5737L41.8017 35.0737C42.1533 34.7222 42.6301 34.5248 43.1273 34.5248C43.6245 34.5248 44.1013 34.7222 44.4529 35.0737L51.9529 42.5737C52.132 42.7467 52.2748 42.9536 52.3731 43.1824C52.4714 43.4111 52.5231 43.6572 52.5253 43.9061C52.5274 44.1551 52.48 44.402 52.3857 44.6324C52.2914 44.8628 52.1522 45.0722 51.9762 45.2482C51.8001 45.4243 51.5908 45.5635 51.3603 45.6578C51.1299 45.7521 50.883 45.7995 50.634 45.7973C50.3851 45.7952 50.139 45.7435 49.9103 45.6452C49.6815 45.5469 49.4746 45.4041 49.3017 45.225Z" fill="#1E1E1E"/>
</svg>
