<svg width="60" height="60" viewBox="0 0 60 60" fill="none" xmlns="http://www.w3.org/2000/svg">
<path d="M50.6258 24C52.5179 25.0895 54.052 26.7061 55.0412 28.6525C56.0303 30.599 56.4317 32.7912 56.1963 34.9618C55.961 37.1325 55.0991 39.1877 53.7157 40.8769C52.3324 42.5661 50.4874 43.8163 48.4058 44.475C47.6701 47.8137 45.8162 50.801 43.1512 52.9423C40.4861 55.0837 37.1696 56.2506 33.7508 56.25H28.1258C27.6285 56.25 27.1516 56.0525 26.8 55.7008C26.4484 55.3492 26.2508 54.8723 26.2508 54.375C26.2508 53.8777 26.4484 53.4008 26.8 53.0492C27.1516 52.6975 27.6285 52.5 28.1258 52.5H33.7508C36.0781 52.5007 38.3484 51.7798 40.249 50.4366C42.1496 49.0935 43.5871 47.194 44.3633 45H43.1258C42.6285 45 42.1516 44.8025 41.8 44.4508C41.4484 44.0992 41.2508 43.6223 41.2508 43.125V24.375C41.2508 23.8777 41.4484 23.4008 41.8 23.0492C42.1516 22.6975 42.6285 22.5 43.1258 22.5H45.0008C45.6083 22.5 46.2046 22.5487 46.7896 22.6425C46.3674 18.4833 44.4165 14.6289 41.3148 11.8261C38.213 9.02322 34.1813 7.47147 30.0008 7.47147C25.8203 7.47147 21.7886 9.02322 18.6869 11.8261C15.5851 14.6289 13.6342 18.4833 13.2121 22.6425C13.8036 22.5477 14.4017 22.5 15.0008 22.5H16.8758C17.3731 22.5 17.85 22.6975 18.2016 23.0492C18.5533 23.4008 18.7508 23.8777 18.7508 24.375V43.125C18.7508 43.6223 18.5533 44.0992 18.2016 44.4508C17.85 44.8025 17.3731 45 16.8758 45H15.0008C12.522 45.0028 10.1117 44.1867 8.14431 42.6787C6.17695 41.1707 4.76273 39.0552 4.12137 36.6608C3.48001 34.2664 3.64742 31.7272 4.59759 29.4377C5.54777 27.1482 7.2275 25.2367 9.37581 24C9.37581 18.5299 11.5488 13.2839 15.4167 9.41592C19.2847 5.54798 24.5307 3.375 30.0008 3.375C35.4709 3.375 40.717 5.54798 44.5849 9.41592C48.4528 13.2839 50.6258 18.5299 50.6258 24ZM15.0008 26.25C13.0117 26.25 11.104 27.0402 9.69751 28.4467C8.29099 29.8532 7.50081 31.7609 7.50081 33.75C7.50081 35.7391 8.29099 37.6468 9.69751 39.0533C11.104 40.4598 13.0117 41.25 15.0008 41.25V26.25ZM52.5008 33.75C52.5008 31.7609 51.7106 29.8532 50.3041 28.4467C48.8976 27.0402 46.9899 26.25 45.0008 26.25V41.25C46.9899 41.25 48.8976 40.4598 50.3041 39.0533C51.7106 37.6468 52.5008 35.7391 52.5008 33.75Z" fill="#1E1E1E"/>
</svg>
