<svg width="38" height="44" viewBox="0 0 38 44" fill="none" xmlns="http://www.w3.org/2000/svg">
<path d="M37.5215 21.8593C37.5215 29.0092 30.8758 36.1646 22.1497 36.1646C13.4235 36.1646 6.69125 26.8456 6.69125 19.6958C7.39277 12.7219 11.9632 5.38205 20.6893 5.38205C29.4154 5.38205 37.5215 14.7096 37.5215 21.8593Z" fill="#FDD751"/>
<path d="M28.2352 1.09148C28.2474 1.42981 27.9758 1.7137 27.6286 1.72557C25.5699 1.79597 24.4112 2.41289 23.728 3.05539C23.2104 3.54228 22.9295 4.0752 22.7469 4.50925C25.6633 5.16977 28.1271 6.51088 29.6718 7.72236C32.7988 10.1748 34.8998 12.8979 36.2084 15.3008C37.5003 17.6732 38.0489 19.7894 37.9966 21.0483C37.9921 28.487 34.1174 34.5304 28.4926 37.2157L29.1356 41.9156L31.2286 41.6966C31.574 41.6605 31.8841 41.9041 31.9212 42.2407C31.9583 42.5773 31.7083 42.8795 31.3629 42.9156L28.6729 43.1969C28.3816 43.2274 28.1153 43.0589 28.0169 42.8033C27.9905 42.7482 27.9721 42.6883 27.9634 42.6248L27.2933 37.727C25.1233 38.545 22.7334 38.8835 20.2313 38.6427C19.4437 38.5669 18.6941 38.4151 17.9815 38.1984L17.3349 42.9243C17.3263 42.9872 17.3081 43.0467 17.282 43.1015C17.184 43.3578 16.9174 43.527 16.6255 43.4964L13.9354 43.2151C13.59 43.179 13.3401 42.8768 13.3771 42.5402C13.4142 42.2036 13.7243 41.96 14.0697 41.9962L16.1627 42.2151L16.7729 37.7557C13.6299 36.4022 11.2836 33.7633 9.61228 30.9845C7.37336 27.2619 6.25972 23.1532 6.02548 21.1031C5.87261 19.7651 4.96826 18.6552 3.79093 17.7535C2.62028 16.857 1.2652 16.2326 0.37476 15.8488C0.0570432 15.7119 -0.086607 15.3499 0.0539085 15.0403C0.0971909 14.9449 0.162385 14.8656 0.241173 14.8056C0.333661 14.6257 0.515013 14.4939 0.735494 14.4704L10.5178 13.428C10.8632 13.3912 11.1738 13.6342 11.2115 13.9707C11.2493 14.3072 10.9999 14.6099 10.6546 14.6467L2.53998 15.5114C3.19601 15.8572 3.90497 16.2816 4.5683 16.7896C5.86199 17.7804 7.06887 19.1563 7.27581 20.9674C7.49131 22.8535 8.55148 26.7962 10.6977 30.3646C12.3657 33.1381 14.638 35.6045 17.6065 36.7664C17.6653 36.78 17.7205 36.8013 17.7711 36.8293C18.5807 37.1304 19.4414 37.3348 20.355 37.4227C29.214 38.2753 36.7385 31.1645 36.7385 21.0352V21.0217L36.7392 21.0082C36.7822 20.0587 36.342 18.1616 35.0971 15.8755C33.8641 13.6112 31.87 11.02 28.883 8.67741C27.102 7.28059 23.9423 5.67136 20.3171 5.37073C16.7231 5.07268 12.6492 6.05607 8.94709 9.87187C8.70842 10.1179 8.3103 10.1288 8.05786 9.89618C7.80542 9.6636 7.79425 9.27564 8.03292 9.02965C12.017 4.92322 16.476 3.82181 20.4238 4.1492C20.7839 4.17907 21.1396 4.22079 21.4902 4.27311C21.6902 3.75552 22.0582 2.92214 22.8544 2.17329C23.7929 1.29061 25.2625 0.579783 27.5845 0.500384C27.9317 0.488513 28.223 0.753156 28.2352 1.09148Z" fill="#333333"/>
<path d="M16.6158 14.4446C16.6158 14.8583 16.2717 15.1936 15.8473 15.1936C15.4228 15.1936 15.0787 14.8583 15.0787 14.4446C15.0787 14.031 15.4228 13.6956 15.8473 13.6956C16.2717 13.6956 16.6158 14.031 16.6158 14.4446Z" fill="#333333"/>
</svg>
